# xmcd
#
# Track frame offsets:
# 150
# 15035
# 32901
# 47662
# 64672
# 78105
# 90307
# 104986
# 119837
# 135501
# 149322
# 164616
# 177965
# 194781
#
# Disc length: 2804 seconds
#
#
# Revision: 2
# Processed by: cddbd v1.5.1PL2 Copyright (c) Steve Scherf et al.
# Submitted via: FreeRIP 2.944 
#
DISCID=c10af20e
DTITLE=Truck Stop - Lousiana Ladies
DYEAR=1900
DGENRE=
TTITLE0=Truck Stop - Lousiana Ladies
TTITLE1=Truck Stop - Träume von den Cowboys
TTITLE2=Truck Stop - Sie will den Himmel auf Erden
TTITLE3=Truck Stop - Es ist nicht wahr
TTITLE4=Truck Stop - Trucker, Cowboy, Mann
TTITLE5=Truck Stop - Schöne Grüße
TTITLE6=Truck Stop - Highways
TTITLE7=Truck Stop - Der Traum vom großen Abenteuer
TTITLE8=Truck Stop - Nastarowje
TTITLE9=Truck Stop - Oh, Mann du weißt doch...
TTITLE10=Truck Stop - Trucker bleibt Trucker
TTITLE11=Truck Stop - Ich würd so gern mal wieder sündigen
TTITLE12=Truck Stop - Silverado
TTITLE13=Truck Stop - Wenn ein Stern vom Himmel fällt
EXTD=
EXTT0=
EXTT1=
EXTT2=
EXTT3=
EXTT4=
EXTT5=
EXTT6=
EXTT7=
EXTT8=
EXTT9=
EXTT10=
EXTT11=
EXTT12=
EXTT13=
PLAYORDER=
